<svg version="1.2" xmlns="http://www.w3.org/2000/svg" viewBox="0 0 1564 592" width="1564" height="592">
	<title>BRI_2020-svg</title>
	<style>
		.s0 { fill: #00529c } 
	</style>
	<g id="layer1">
		<g id="g38">
			<g id="g136">
				<path id="path138" fill-rule="evenodd" class="s0" d="m591.9 93.4l-0.2 406.1c0 51.1-40.5 92.4-90.3 92.4h-411.6c-49.2-0.7-88.8-41.8-88.8-92.4v-406.1c0-51.1 40.4-92.4 90.2-92.4h410.5c49.8 0 90.2 41.3 90.2 92.4zm-361.8 369.1c0-20.7-8.4-39.7-22.4-54.2l-108.9-110.8 116.1-117.7c13.3-13.9 21.5-32.8 21.5-53.8 0-42.2-33.4-78.1-74.7-78.1h-45.5c-26.4 0-46.6 21.5-47.7 48l-0.1 20.2v375.1l0.1 3.9c0 27.4 21.9 49.8 49.1 49.8l22.4-0.3c49.8 0 90.1-36.8 90.1-82.1zm271 74.9l-236.7-241.1 114-116.5c13.3-13.9 21.5-32.8 21.5-53.8 0-42.2-33.5-78.1-74.8-78.1h-49.2c14.2 20.4 23 48.5 23 80.2 0 40-14 75.2-35.2 95.1l-70.8 73.1 69.4 70.8c20.1 22.5 32.9 56.8 32.9 95 0 31.4-23.5 82.1-23.5 82.1l203 0.1c9.4 0 18.8-2.2 26.4-6.9zm23.3-439.5c0-27.5-22.1-49.8-49.2-49.8l-36.1-1.1c14.3 20.4 23.2 49.2 23.2 81.1 0 34.6-10.5 65.5-26.9 86.1l-80.8 82 169.6 172.7z"/>
			</g>
			<g id="g148">
				<path id="path142" fill-rule="evenodd" class="s0" d="m1000.5 319q19.1 32.6 19.1 74.4 0 31.2-10.3 58.5-10.3 27.3-31.5 47.8-21.3 20.6-53.6 32.3-32.3 11.7-75.5 11.7h-198.6v-496.1h180.9q41.1 0 71.9 10.7 30.9 10.6 51.5 29.4 20.5 18.8 30.5 43.9 9.9 25.2 9.9 54.2 0 14.9-4.3 28-4.2 13.1-10.3 23.7-6 10.7-12.7 18.5-6.8 7.8-11.7 12.7 25.5 17.7 44.7 50.3zm-172.4-186.3h-85.8v109h138.1q7-7 14.1-20.5 7-13.4 7-33.8 0-22.6-16.9-38.8c-4.4-4.2-9.9-7.5-16.6-10.1-10.5-3.8-23.8-5.8-39.9-5.8zm-85.8 194.8v129.4h100.6q44.5 0 63.9-19 19.5-19.1 19.5-45.9c0-17.4-5.7-32.4-17.1-45.1q-18.1-19.4-55.5-19.4zm561.8 25.5l134 190.7h-110.2l-129.6-184.3h-52.4v184.3h-94v-496.1h195.4q43.3 0.1 76.3 11.4 32.9 11.3 54.9 31.5 22 20.2 33 48.2 11 28 11 61.3 0 25.5-7.1 50-7.1 24.4-22 44.6-14.9 20.2-37.2 35.4-22.4 15.3-52.1 23zm-158.2-220.3v140.8h99.5q21.9 0 37.5-6.4 15.5-6.3 25.4-16.6 9.9-10.2 14.5-23.6 4.6-13.4 4.6-27.5 0-28.3-21.6-47.7c-10.5-9.5-24.2-15.4-41-18-5.3-0.6-10.9-1-16.8-1zm417.6-85.1v496.1h-95.8v-496.1h0.8c0.9 0 1.8 0.2 2.8 0.2v-0.2z"/>
			</g>
		</g>
	</g>
</svg>