<svg version="1.2" xmlns="http://www.w3.org/2000/svg" viewBox="0 0 1588 663" width="1588" height="663">
	<title>GoTo_logo-svg</title>
	<style>
		.s0 { fill: #1fca3e } 
	</style>
	<g id="Layer">
		<path id="Layer" fill-rule="evenodd" class="s0" d="m173.6 661.8c-53.3-6.1-108.5-29.9-142.1-61.1-8-7.5-8.8-8.8-10.1-17.6-1.6-11.6 0.2-83.1 2.2-84.3 0.8-0.5 6.8 4.3 13.3 10.8 28.3 27.8 73.5 51 118.3 60.8 18.3 4 57.9 5 75.9 1.8 58.2-10.1 102.4-53.9 107.9-107 0.5-5.4 0.5-9.9-0.1-9.9-0.6 0-5.4 2.9-10.6 6.4-21 14.3-48.5 25.8-78.5 32.7-18 4.2-61.5 4.2-79.5 0-59.8-13.9-102.9-42.5-134.7-89.7-25.8-38.2-39.1-89.1-34.8-133.3 9.7-100.6 84.1-177.7 184.4-191.2 44.9-6 99.5 6.7 138.9 32.3 7.5 4.9 14 8.5 14.5 8 0.5-0.6 1-7.3 1-15v-14h77.8l0.9 148.5 6-17.3c11.1-31.7 27.2-58.2 48.3-79.7 29.2-29.7 61.5-48.2 101.3-58.1 77.1-19.1 159.9 8.2 210.5 69.4 18.9 22.8 32.2 47.5 41 76.2 2.9 9.4 2.9 8.7 3.3-110l0.4-119.6h77.9v90.6h170.1v77.8l-169.3 0.8v68.3c0 76 0.1 77.6 11.2 100.1 14.1 28.8 40.9 50 74.6 58.9 16.1 4.4 72.8 4.4 89 0.1 33.1-8.8 59.9-30.2 74-59 8-16.5 10.5-28.4 11.7-55.6 0.6-12.2 2.2-27.5 3.5-34.1 9.5-46.1 34.2-89 67.6-117.7 42.1-36.2 91.8-53.9 146-51.9 163.8 6.1 257 187 167.7 324.7-11.1 17.1-41.1 47.4-57.8 58.2-38.6 25.3-80.8 37.2-125 35.4-39.2-1.6-73.3-12.1-104.9-32.4-16.5-10.6-35.8-27.4-47-40.9-5.4-6.5-10.3-11.9-10.9-11.9-0.6 0-6.2 6-12.4 13.3-36.3 42.9-93.2 69.1-156.3 72-92 4.3-180.4-63.1-203.2-154.7-2.2-9-4.5-16.4-5-16.4-0.6 0-2.3 5.5-3.8 12.3-8.4 38.9-35.3 82.2-67.8 109.2-28.9 24.1-59.3 38.5-99.3 47.2-15.2 3.2-60.8 2.7-76.3-0.9-59.4-13.8-104.1-43.8-135.1-90.7-11-16.6-16.5-28-24.1-49.3l-6.2-17.5-0.9 71.5c-1.1 73.2-1.3 76.3-8.5 103.4-14.5 54.3-59.6 107.3-112.7 132.3-13.7 6.4-35.4 13.2-51.1 16-13.3 2.4-56.4 3.3-71.4 1.6zm79.8-262.1c25.3-5.9 49.2-20.2 63.5-38 3.9-4.8 10.4-15.6 14.5-23.9l7.4-15.1v-69.9l-6.8-14.1c-15.6-32.7-40-52.4-75.9-61.4-12.6-3.2-18.3-3.6-47.7-3.6-29.2 0-35 0.4-46.1 3.4-44 11.8-73.5 42.8-82.6 86.9-11.9 57.6 21 114.8 76.3 132.5 8.1 2.6 19.3 5.4 24.8 6.3 15.2 2.3 56.9 0.5 72.6-3.1zm416.1-0.8c39.8-10 68.6-36.5 81.4-75 3.6-10.8 4.1-15 4.2-34.6 0.1-17.2-0.6-24.5-2.9-32.5-12-41.5-40.4-69-82-79.3-28.2-7.1-77-6-102.8 2.2-35.7 11.3-62.3 39.4-72.4 76.6-2.6 9.5-3.3 17-3.4 32.2 0 23.2 3.6 37.9 13.9 56.5 7.7 13.8 26.7 33 40.6 41.1 12.6 7.3 34.1 14.7 48.7 16.7 18 2.4 57.9 0.4 74.7-3.9zm754.7 0.2c40.7-10.4 69.7-38.1 82.4-78.8 3-9.8 3.7-15.3 3.6-31.7 0-23.2-2.4-34.2-11.8-53.3-14.2-29-39.6-49-73.9-58.2-11.1-2.9-17.1-3.4-46.9-3.4-30 0-35.7 0.4-46.9 3.4-21.5 5.8-37.9 14.9-51.6 28.7-14 14.2-20.8 25.1-27.6 44.2-4.6 13.1-4.9 15.3-5 37 0 26.1 1.7 33.8 11.9 53.9 13.6 26.6 36.9 46.3 66.1 55.6 20.7 6.7 31.3 8 59.5 7.2 19.4-0.5 27.9-1.5 40.2-4.6z"/>
	</g>
</svg>