<svg version="1.2" xmlns="http://www.w3.org/2000/svg" viewBox="0 0 1583 864" width="1583" height="864">
	<title>Telkom_Indonesia_2013-svg</title>
	<style>
		.s0 { fill: #5c5c5c } 
		.s1 { fill: #d51100 } 
		.s2 { fill: #ffffff } 
		.s3 { fill: #171717 } 
	</style>
	<g id="Layer">
		<g id="svg_3">
			<g id="svg_1">
				<path id="path3115-0" fill-rule="evenodd" class="s0" d="m1140.6 608.7c-112.5 0-203.5-87.8-203.5-196.3 0-108.6 91-196.4 203.5-196.4 112.5 0 203.5 87.8 203.5 196.4 0 108.5-91 196.3-203.5 196.3zm120.9-204.6c0-69.3-58.8-125.2-131.5-125.2-72.7 0-131.5 55.9-131.5 125.2 0 69.2 58.8 125.2 131.5 125.2 72.7 0 131.5-56 131.5-125.2z"/>
				<path id="path3912-9" fill-rule="evenodd" class="s1" d="m1276.8 0.3l-0.1 0.1c1 0 2 0.1 3 0.2 4.9 0.7 10.6 2.9 13.5 6.9 4 5.7 4.8 12.3 5.4 19.2 1.2 12.5-1.7 27.3-3.3 40.9-3.2 28.8-9.2 57.8-12.6 86.1-1.1 9.3-2.9 23.7 5.8 27.5 12.6 5.5 25.5-12 35.1-21.8 28.1-28.7 52-55.9 81.5-86.7 8.8-9.1 24.3-20.3 35.8-25.4 7.8-3.5 17-7.2 25.3-5.2 4.6 1.1 8.7 4.9 10.9 9.1 3.8 7.3 3.6 16.5 2.1 24.6-1.9 11.3-8.9 21.3-14.5 31.3-11.3 20.4-25.8 38.9-38.1 58.7-11 17.7-24 34.5-32.1 53.8-3.9 9.3-13.9 21.5-7.5 29.4 6.5 8.1 21.1 1.3 31.1-1.4 16.8-4.6 30.5-16.6 46.1-24.3 21.1-10.3 42-21.5 64.1-29.2 8.1-2.9 15.2-4.9 23.8-5 8.2 0 15.6-0.6 22.4 4.1 4.2 2.8 7 6.7 7.5 11.7 0.7 7.6-4.2 17.8-8.2 24.3-5.7 9.1-13.1 14.9-20.7 22.4-24.1 23.7-49.5 42.7-76 63.6-23 18.2-49.4 32.1-70.3 52.5-10.4 10.2-27.9 22.4-25 36.6 3.1 14.9 24.5 17.8 38.9 19.5 17.7 2 31.9-0.1 48.6 2.2 11.1 1.6 25.4 2.4 35.1 8.2 9.5 5.9 20.8 14.2 20.5 25.4-0.3 12.3-14.6 21-25.5 26.9-32.1 17.4-70.2 19.8-106.7 21.8-23.5 1.3-45.8-0.9-68.8-5.5-0.4-0.1-2.1-0.4-2.4-0.5 2.4-4.5 4.5-8.8 6.5-13.5 5.2-11.8 9.2-24.1 11.9-36.9 1.4-6.4 2.5-12.9 3.2-19.5 0.6-6.6 1-13.3 1-20.1 0-6.8-0.4-13.5-1-20.1-0.7-6.6-1.8-13-3.2-19.4-2.7-12.8-6.7-25.1-11.9-36.9-5.1-11.7-11.3-23-18.6-33.4-7.4-10.5-15.7-20.2-24.9-29-9.2-8.9-19.4-17-30.2-24-10.8-7.1-22.3-13.1-34.4-18.1-12.2-4.9-25-8.7-38.3-11.3-6.6-1.3-13.3-2.4-20.2-3.1q-10.2-1-20.8-1-10.5 0-20.8 1c-6.9 0.7-13.6 1.8-20.2 3.1-11.5 2.2-34 9.8-34 9.8 0 0-0.4-10.9-0.5-16.4-0.3-51.3 4.9-86.7 20.7-118.4 6.8-13.5 18.3-37.7 34.1-36.8 10.4 0.5 17.1 17.2 19.1 24.7 4.2 16 2 32.8 3.8 49.2 0.8 8.4 0.7 24 3.5 32 2.2 6.2 4.3 9.3 10.7 11.1 6.2 1.7 10.8-2.2 15.5-6.6 7.5-7 12.5-17.4 16.8-26.6 17.6-37.8 35-75.7 53.4-115 3.6-7.7 9.7-15.5 16.7-20.3 5.7-4 10.9-6.7 17.4-6.5zm-146.8 278.6c9.1 0 18 0.8 26.5 2.5 8.6 1.7 16.9 4.2 24.8 7.3 7.8 3.2 15.3 7 22.3 11.5 7 4.5 13.5 9.7 19.4 15.4 6 5.7 11.3 11.8 16.1 18.4 4.7 6.7 8.8 13.9 12.1 21.4 3.3 7.5 5.9 15.3 7.7 23.4 1.7 8.2 2.6 16.6 2.6 25.3 0 8.6-0.9 17.1-2.6 25.2-1.8 8.2-4.4 16-7.7 23.5-3.3 7.5-7.4 14.7-12.1 21.3-0.5 0.8-1 1.5-1.5 2.2-0.2-0.1-0.7-0.4-0.9-0.5-37.3-19.4-72.1-44.7-99.1-76.5-26.9-31.6-44.4-71-59.1-109.6-0.1-0.2-0.2-0.6-0.3-0.8 0.2-0.1 0.3-0.4 0.5-0.4 7.8-3.2 16.3-5.4 24.8-7.1 8.6-1.7 17.4-2.5 26.5-2.5z"/>
				<path id="path3910-4" class="s2" d="m1321.5 502.3c-26.1-5.3-56.3-13.3-84-26.1 0.5-0.7 1-1.4 1.5-2.1 4.8-6.6 8.8-13.8 12.2-21.3 3.3-7.5 5.9-15.3 7.7-23.5 1.7-8.1 2.6-16.6 2.6-25.2 0-8.7-0.9-17.1-2.6-25.3-1.8-8.1-4.4-16-7.7-23.4-3.4-7.5-7.4-14.7-12.2-21.4-4.7-6.6-10-12.7-16-18.4-5.9-5.7-12.4-10.9-19.4-15.4-7-4.5-14.5-8.3-22.4-11.5-7.8-3.2-16.1-5.6-24.7-7.3-8.6-1.7-17.4-2.5-26.5-2.5-9.1 0-17.9 0.8-26.5 2.5-8.6 1.7-16.9 4.1-24.7 7.3q-0.3 0.1-0.6 0.2c-6.9-18.5-11.3-43.1-12.6-59.1 10.6-4.1 22.5-7.5 34-9.8 6.6-1.3 13.3-2.3 20.2-3q10.2-1 20.8-1 10.5 0 20.8 1c6.9 0.7 13.6 1.7 20.2 3 13.3 2.7 26.1 6.4 38.3 11.4 12.1 5 23.6 11 34.4 18.1 10.8 7 21 15.1 30.2 23.9 9.2 8.9 17.5 18.6 24.8 29.1 7.4 10.4 13.6 21.7 18.7 33.4 5.2 11.8 9.2 24.1 11.9 36.9 1.3 6.4 2.5 12.8 3.1 19.4 0.7 6.6 1.1 13.3 1.1 20.1 0 6.7-0.4 13.4-1.1 20-0.6 6.6-1.8 13.2-3.1 19.6-2.7 12.8-6.7 25.1-11.9 36.9-2 4.7-4.1 9-6.5 13.5z"/>
			</g>
			<g id="svg_2">
				<path id="path3940-7" fill-rule="evenodd" class="s3" d="m324.9 429.4v173.8c0 8.6-6.8 15.5-15.2 15.5-8.4 0-15.1-6.9-15.1-15.5v-173.8c0-8.6 6.7-15.5 15.1-15.5 8.4 0 15.2 6.9 15.2 15.5zm43.8-15.5c8.4 0 15.1 6.9 15.1 15.5v109.8l67.7-63.8c5.3-5.4 13.9-7.2 21.1-0.9 5.8 5 7.3 14.1 0.5 21l-43.3 41.5 45.2 56.8c4.4 5.8 5.3 16.3-0.3 21.3-5.1 4.5-16.1 4.9-20.6-0.9l-46.8-55.7-23.5 22.5v22.2c0 8.6-6.7 15.5-15.1 15.5-8.4 0-15.2-6.9-15.2-15.5v-173.8c0-8.6 6.8-15.5 15.2-15.5zm-217.7 11.4c7.2 0 13 6.1 13 13.9 0 7.7-5.8 13.9-13 13.9h-54.8v151.1c0 8.1-6.8 14.5-15.2 14.5-8.4 0-15.1-6.4-15.1-14.5v-151.1h-52.8c-7.2 0-13-6.2-13-13.9 0-7.8 5.8-13.9 13-13.9zm408.2 195.5c-43 0-77.8-33.8-77.8-75.7 0-41.9 34.8-75.7 77.8-75.7 43 0 77.8 33.8 77.8 75.7 0 41.9-34.8 75.7-77.8 75.7zm260.4-150.6v0.1c4.5 0 8.9 0.6 13.2 1.4 5.5 1.2 10.8 3.6 15.6 6.5 6 3.7 11.9 8 16.3 13.4 4.3 5.7 9.4 14 9.4 29.2v82.3c0 7.2-6.8 15.6-15.2 15.6-8.4 0-15.1-7-15.1-15.6v-76.9c0-0.3-0.1-0.6-0.1-0.9 0-5.6-1.1-7.3-3.8-12.2-2.2-4.3-5.9-8.6-9.9-11.3-5.4-3.6-10.9-3.8-16.5-3.7-6.9 0.1-13.8 1.5-19.4 5.6-6.2 4.5-13.8 14.1-13.8 21.9v77.5c0 8.6-6.8 15.6-15.3 15.6-8.4 0-15.1-7-15.1-15.6v-74.1c0-16.1-9.5-26.7-18.3-29.2-7.2-1.7-11.7-1.7-16.7-1.1-4.7 0.6-11.4 1.6-15.4 4.1-9.2 5.8-16.1 15.5-16.1 26.4v73.9c0 8.6-6.8 15.6-15.2 15.6-8.4 0-15.1-7-15.1-15.6v-115.6c0-8.7 4.7-15.6 15.1-15.6 8.4 0 15.1 5.2 15.1 13.8v1c0 0 13.8-11.1 22.1-14 7.1-2.4 15-3.1 22.6-3.1 4.1 0.1 8.3 1.2 12.3 2.3 18.4 4.9 28.2 18.7 28.2 18.7 0 0 9.6-7.3 15.1-10.5 7.1-4 14.8-7.1 22.8-8.7 4.3-0.9 8.7-1.2 13.2-1.2zm-611.4 0.2c42.6 0 69 33.4 69 70.6 0 3.5-3.4 10.4-6.1 12.5-3.5 2.6-7.7 5.3-17.5 5.3h-85.3c1.1 18.7 18.1 34.7 40.5 34.7 15.8 0 27.4-6.2 39.3-14.9 3.9-2.9 13.9-4.8 19.1 0.4 6.6 6.6 2.7 18.3-1.9 22.8-13.3 13.4-25.5 18.8-56.5 18.8-43 0-74.4-32.6-74.4-74.5 0-41.8 28.6-75.7 73.8-75.7zm398.4 75.4c0-27.4-21.3-49.6-47.7-49.6-26.3 0-47.6 22.2-47.6 49.6 0 27.5 21.3 49.7 47.6 49.7 26.4 0 47.7-22.2 47.7-49.7zm-400.4-49.3c-25 0-38.2 18.7-38.2 34.3h75.6c0-16.1-11.7-34.3-37.4-34.3zm278 161.8c8 0 14.4 6.5 14.4 14.5v174.8c0 8-6.4 14.4-14.4 14.4-8 0-14.4-6.4-14.4-14.4v-10c-10.3 14-26.2 25.6-50.9 25.6-43 0-72.3-32.9-72.3-74.7 0-45.3 31.3-73.7 74.3-75.3 23.6-0.8 38.9 9.6 48.9 23v-63.4c0-8 6.4-14.5 14.4-14.5zm-319.1 22.3v165.6c0 8.5-6.5 15.3-14.5 15.3-8 0-14.4-6.8-14.4-15.3v-165.6c0-8.5 6.4-15.3 14.4-15.3 8 0 14.5 6.8 14.5 15.3zm879.8 31.5c8.1-0.3 16.3 0.9 24.1 3.1 6.4 1.8 12.5 3.4 18.1 6.8 4.1 2.5 9.1 5.9 11.3 10.2 1.9 3.7 2.8 9.1 0.5 12.6-2.5 3.6-8.1 4.2-12.5 4.3-5.2 0.1-9.5-2.8-14.4-4.5-4.1-1.5-7.7-4.2-11.8-5.5-4.8-1.5-10.3-3-15.3-2.9-5.4 0.1-11.4 1-15.7 4.4-3.3 2.5-6.1 6.7-6.2 10.8-0.2 3.7 2.1 7.3 4.6 9.9 3.2 3.3 8.1 4.3 12.3 6.2 6.7 3.1 13.7 5.5 20.4 8.3 8.6 3.5 16.4 5.6 24.2 10.6 5.6 3.6 11.3 8.4 14.7 14.1 3.1 5 3.3 12.2 3.7 18.1 0.5 8.7-1.3 15.9-6 23.2-5.3 8.2-11.3 13.3-20.4 16.6-9.8 3.6-20.2 4.2-30.7 4.4-10.2 0.1-18.5-1.5-28.2-4.5-6.4-2-14.2-5.2-19.6-9.2-3.5-2.7-7.2-5.9-8.9-10-1.2-3.2-1.9-5.3-0.5-8.4 1.7-3.6 5-7 8.9-7.9 3.5-0.8 7.1 1.7 10.5 3 3.4 1.4 6.5 3.7 9.9 5.3 4.1 1.9 7.8 3.9 12.2 5.3 6.6 2.2 12.1 3.3 19.1 3.2 5.9-0.2 13.7-0.4 18.2-4.3 3.8-3.3 7-7.7 6.9-12.7-0.2-4.7-3.1-9.3-6.6-12.4-6.1-5.3-15.1-5.9-22.8-8.7-9.6-3.6-20.1-5.3-29.2-10.2-6.6-3.7-13.6-7.8-17.9-14-4.3-6.2-6.7-14-6.8-21.5-0.1-7.5 2.3-15.2 6.3-21.5 4.3-6.8 11-12.4 18.3-16.1 8.9-4.4 19.4-5.7 29.3-6.1zm-451.7 151.6c-43 0-77.8-33.9-77.8-75.8 0-41.8 34.8-75.7 77.8-75.7 43 0 77.7 33.9 77.7 75.7 0 41.9-34.7 75.8-77.7 75.8zm319.9-151.1c42.7 0 68.9 33.5 68.9 70.7 0 3.4-3.3 10.4-6.1 12.4-3.4 2.7-7.6 5.3-17.5 5.3h-85.2c1 18.8 18 34.7 40.4 34.7 15.9 0 27.5-6.2 39.4-14.9 3.9-2.8 13.8-4.8 19.1 0.4 6.5 6.6 2.6 18.3-1.9 22.9-13.4 13.3-25.6 18.7-56.6 18.7-42.9 0-74.4-32.6-74.4-74.4 0-41.8 28.8-75.8 73.9-75.8zm324.5 0.5c11.1 0.1 22.3 1.6 32.8 5.2 6.6 2.4 12.8 4.9 18.4 10.4 6.3 6.4 13.1 15.6 14.6 24.5 3.1 19.1 3.2 56.3 3.2 56.3v38.6c0 7.8-6.3 14.2-14.3 14.2-8 0-14.7-6.6-14.5-14.2l0.1-6.4c0 0-5 7.7-9.1 10.3-10.7 7.1-24.2 10.7-37 10.8-10.6 0.1-21.9-2.2-31.2-7.4-9.7-5.4-17.8-11.1-22.1-21.3-3.7-9.2-4-22.1-1.2-31.6 2.4-8.2 7.2-16.4 13.7-21.9 7.2-6 16.8-7.9 26-9.9 9.3-2.1 19.1-2 28.7-2 7.4-0.1 14.8 0.1 22.1 1.3 2.9 0.5 6.8 1.7 9.9 2.7-0.4-2.5-3.3-21.6-11.2-27.6-11.4-8.8-29.5-9-43.4-5.3-12.4 3.3-18.6 9-27.7 6-5.1-1.7-7-4.8-7.6-8.6-0.7-4.3 2.2-8.7 5.1-11.9 3.8-4.1 9.4-6.4 14.7-8.2 9.6-3.2 19.9-4.1 30-4zm-971.6 0.6c2 0 4 0 5.6 0 4.2 0.1 8.6 0.2 12.9 1.2 0.2 0 0.6 0 0.8 0.1 10.9 2.9 23.1 9.2 30 18.1 6.7 8.6 11.5 19.9 11.5 36.8v77c0 8.7-6.8 15.6-15.3 15.6-8.4 0-15.1-6.9-15.1-15.6v-74c0-16.2-12.4-26.8-21.2-29.2-7.2-1.7-11.6-1.8-16.7-1.1-4.7 0.5-11.4 1.6-15.4 4.1-9.2 5.8-16.1 15.4-16.1 26.3v73.9c0 8.7-6.8 15.6-15.2 15.6-8.4 0-15.1-6.9-15.1-15.6v-115.6c0-8.6 3.2-17.1 13.5-17.1 12.5 0 14.1 9 14.1 14v1c0 0 14.5-10.1 23.7-13.2 4.7-1.6 11.9-2.2 18-2.3zm495.3 0c2.1 0 4 0 5.6 0 4.2 0.1 8.6 0.2 12.9 1.2 0.3 0 0.6 0 0.9 0.1 10.9 2.9 23.1 9.2 29.9 18.1 6.7 8.6 11.5 19.9 11.5 36.8v77c0 8.7-6.8 15.6-15.2 15.6-8.4 0-15.1-6.9-15.1-15.6v-74c0-16.2-12.4-26.8-21.2-29.2-7.2-1.7-11.7-1.8-16.8-1.1-4.6 0.5-11.3 1.6-15.3 4.1-9.3 5.8-16.1 15.4-16.1 26.3v73.9c0 8.7-6.8 15.6-15.3 15.6-8.4 0-15.1-6.9-15.1-15.6v-115.6c0-8.6 3.2-17.1 13.5-17.1 12.6 0 14.1 9 14.1 14v1c0 0 14.5-10.1 23.7-13.2 4.7-1.6 11.9-2.2 18-2.3zm393.5 15.3v118.3c0 7.9-6.5 14.2-14.5 14.2-8 0-14.3-6.3-14.3-14.2v-118.3c0-7.9 6.3-14.3 14.3-14.3 8 0 14.5 6.4 14.5 14.3zm-243.7 9.8c-24.9 0-38.3 18.6-38.3 34.2h75.8c0-16.1-11.8-34.2-37.5-34.2zm-270.5 49.9c0-27.5-21.3-49.6-47.7-49.6-26.3 0-47.7 22.1-47.7 49.6 0 27.4 21.4 49.6 47.7 49.6 26.4 0 47.7-22.2 47.7-49.6zm-170.8-1c0-26.6-20.8-48.1-46.7-48.1-25.8 0-46.6 21.5-46.6 48.1 0 26.6 20.8 48.1 46.6 48.1 25.9 0 46.7-21.5 46.7-48.1zm769 2.8c-9.3 0.5-20.1 1-27.2 7-6 5.2-8.1 12.4-7.5 20.3 0.6 6.8 3.8 12.2 9.3 16.1 5.9 4.3 13.7 6 20.9 6.2 9.2 0.1 19.9-0.9 27.8-5.7 7.2-4.3 12-13 15.1-20.7 2.2-5.7 1.5-17.9 1.5-18.6-5.1-1-10.8-2.1-14.9-2.7-8.1-1.3-16.8-2.4-25-1.9z"/>
			</g>
		</g>
	</g>
</svg>